<svg xmlns="http://www.w3.org/2000/svg" width="40" height="40"><path d="M29.274 23.023a7.878 7.878 0 01-7.878 7.877c-3.762 0-6.762-2.645-7.623-5.969a3.047 3.047 0 00-2.981-2.307h-.002a2.99 2.99 0 00-2.433 1.191 2.988 2.988 0 00-.55 2.652c1.547 6.04 7.056 10.577 13.59 10.577 7.743 0 14.022-6.28 14.022-14.023 0-7.542-5.957-13.695-13.42-14.011L22 5.582c0-.523-.284-.972-.757-1.194-.474-.224-1-.157-1.404.177l-8.097 6.703c-.313.26-.479.609-.479 1.017s.166.757.479 1.017l8.098 6.703c.403.333.93.399 1.403.177.474-.224.758-.671.758-1.195L22 15.284c4.064 0 7.274 3.76 7.274 7.739z" fill-rule="evenodd" clip-rule="evenodd"/></svg>