<svg xmlns="http://www.w3.org/2000/svg" width="40" height="40"><path d="M31.508 27.079c-.736.72-1.935.72-2.671 0l-.19-.187a1.826 1.826 0 010-2.613l2.356-2.305H25.01c-1.123 0-2.031-.891-2.031-1.988s.909-1.987 2.031-1.987h5.993l-2.356-2.306a1.825 1.825 0 010-2.613l.19-.188a1.923 1.923 0 012.671 0l7.248 7.094-7.248 7.093zm-4.604-15.71a1.826 1.826 0 01-2.614 0l-2.306-2.355v5.992c0 1.122-.89 2.032-1.987 2.032s-1.988-.91-1.988-2.032V9.014l-2.305 2.355a1.826 1.826 0 01-2.613 0l-.187-.19a1.921 1.921 0 010-2.671l7.093-7.249 7.093 7.249a1.923 1.923 0 010 2.671l-.186.19zm-17.906 6.63h5.993c1.123 0 2.031.891 2.031 1.987 0 1.098-.909 1.988-2.031 1.988H8.998l2.356 2.305a1.826 1.826 0 010 2.613l-.19.187c-.736.72-1.936.72-2.671 0l-7.248-7.093 7.248-7.094a1.923 1.923 0 012.671 0l.19.188c.735.72.734 1.894 0 2.613l-2.356 2.306zm4.093 10.663a1.824 1.824 0 012.613 0l2.305 2.356v-5.993c0-1.122.89-2.031 1.988-2.031s1.987.909 1.987 2.031v5.993l2.306-2.356a1.824 1.824 0 012.614 0l.187.19a1.923 1.923 0 010 2.671l-7.093 7.248-7.093-7.248a1.921 1.921 0 010-2.671l.186-.19z" fill-rule="evenodd" clip-rule="evenodd" fill="#fff"/></svg>