<svg xmlns="http://www.w3.org/2000/svg" width="40" height="40"><path d="M10.195 12H28.79c1.211 0 2.2.988 2.2 2.2v8.598c0 1.211-.988 2.2-2.2 2.2H10.195c-1.212 0-2.2-.989-2.2-2.2V14.2c0-1.211.988-2.2 2.2-2.2zM2.876 6.002h1.68a.44.44 0 01.44.439v.121c0 .242-.198.44-.44.44h-1.56v1.559a.442.442 0 01-.44.441h-.12a.44.44 0 01-.44-.441V6.882a.883.883 0 01.88-.88zm4.707 0h2.341a.44.44 0 01.44.439v.121a.44.44 0 01-.44.44H7.583a.441.441 0 01-.44-.44v-.121a.44.44 0 01.44-.439zm5.37 0h2.341a.44.44 0 01.44.439v.121c0 .242-.198.44-.44.44h-2.341a.44.44 0 01-.44-.44v-.121a.44.44 0 01.44-.439zm5.369 0h2.341a.44.44 0 01.44.439v.121c0 .242-.198.44-.44.44h-2.341a.44.44 0 01-.44-.44v-.121a.44.44 0 01.44-.439zm5.369 0h2.342a.44.44 0 01.44.439v.121c0 .242-.198.44-.44.44h-2.342a.44.44 0 01-.44-.44v-.121a.44.44 0 01.44-.439zm5.37 0h2.341a.44.44 0 01.44.439v.121a.44.44 0 01-.44.44h-2.341a.44.44 0 01-.44-.44v-.121a.44.44 0 01.44-.439zm5.368 0h1.68c.485 0 .88.396.88.88v1.679a.442.442 0 01-.44.441h-.12a.442.442 0 01-.44-.44v-1.56h-1.56a.441.441 0 01-.44-.44v-.121a.44.44 0 01.44-.439zm2.56 5.674v2.473a.44.44 0 01-.44.44h-.12a.44.44 0 01-.44-.44v-2.473c0-.242.198-.44.44-.44h.12a.44.44 0 01.44.44zm0 5.587v2.472a.44.44 0 01-.44.44h-.12a.44.44 0 01-.44-.44v-2.472a.44.44 0 01.44-.439h.12a.44.44 0 01.44.439zm0 5.587v2.472a.44.44 0 01-.44.44h-.12a.441.441 0 01-.44-.44V22.85c0-.242.198-.44.44-.44h.12c.242 0 .44.198.44.44zm0 5.588v1.679c0 .485-.395.88-.88.88h-1.68a.44.44 0 01-.44-.44v-.12c0-.242.198-.44.44-.44h1.56v-1.559a.44.44 0 01.44-.44h.12a.44.44 0 01.44.44zm-5.587 2.558h-2.341a.44.44 0 01-.44-.44v-.12a.44.44 0 01.44-.44h2.341a.44.44 0 01.44.44v.12a.44.44 0 01-.44.44zm-5.369 0h-2.342a.44.44 0 01-.44-.44v-.12a.44.44 0 01.44-.44h2.342c.242 0 .44.198.44.44v.12a.44.44 0 01-.44.44zm-5.369 0h-2.341a.44.44 0 01-.44-.44v-.12a.44.44 0 01.44-.44h2.341c.242 0 .44.198.44.44v.12a.44.44 0 01-.44.44zm-5.37 0h-2.341a.44.44 0 01-.44-.44v-.12a.44.44 0 01.44-.44h2.341c.242 0 .44.198.44.44v.12a.44.44 0 01-.44.44zm-5.369 0H7.583a.44.44 0 01-.44-.44v-.12c0-.242.198-.44.44-.44h2.341a.44.44 0 01.44.44v.12a.44.44 0 01-.439.44zm-5.369 0h-1.68a.881.881 0 01-.88-.88v-1.679a.44.44 0 01.44-.44h.12c.242 0 .44.198.44.44v1.559h1.56c.242 0 .44.198.44.44v.12a.44.44 0 01-.44.44zm-2.559-5.674V22.85a.44.44 0 01.44-.44h.12c.242 0 .44.198.44.44v2.472a.44.44 0 01-.44.44h-.12a.44.44 0 01-.44-.44zm0-5.587v-2.472a.44.44 0 01.44-.439h.12a.44.44 0 01.44.439v2.472a.44.44 0 01-.44.44h-.12a.44.44 0 01-.44-.44zm0-5.587v-2.473a.44.44 0 01.44-.44h.12c.242 0 .44.198.44.44v2.473a.44.44 0 01-.44.44h-.12a.44.44 0 01-.44-.44zm10.658 1.856a.66.66 0 00-.66.66v3.679c0 .363.296.66.66.66h13.677c.363 0 .66-.296.66-.66v-3.679a.66.66 0 00-.66-.66H12.655z" fill-rule="evenodd" clip-rule="evenodd"/></svg>