<?xml version="1.0" encoding="iso-8859-1"?>
<!-- Generator: Adobe Illustrator 16.0.2, SVG Export Plug-In . SVG Version: 6.00 Build 0)  -->
<!DOCTYPE svg PUBLIC "-//W3C//DTD SVG 1.1//EN" "http://www.w3.org/Graphics/SVG/1.1/DTD/svg11.dtd">
<svg version="1.1" id="co_x5F_layout_x5F_1_x5C_2" xmlns="http://www.w3.org/2000/svg" xmlns:xlink="http://www.w3.org/1999/xlink"
	 x="0px" y="0px" width="40px" height="40px" viewBox="0 0 40 40" style="enable-background:new 0 0 40 40;" xml:space="preserve">
<path style="fill-rule:evenodd;clip-rule:evenodd;" d="M10.195,12h18.595c1.211,0,2.2,0.988,2.2,2.2v8.598
	c0,1.211-0.988,2.2-2.2,2.2H10.195c-1.212,0-2.2-0.989-2.2-2.2V14.2C7.995,12.989,8.983,12,10.195,12L10.195,12z M2.876,6.002h1.68
	c0.242,0,0.44,0.197,0.44,0.439v0.121c0,0.242-0.198,0.44-0.44,0.44h-1.56v1.559c0,0.243-0.198,0.441-0.44,0.441h-0.12
	c-0.243,0-0.44-0.198-0.44-0.441V6.882C1.997,6.397,2.392,6.002,2.876,6.002L2.876,6.002z M7.583,6.002h2.341
	c0.243,0,0.44,0.197,0.44,0.439v0.121c0,0.242-0.197,0.44-0.44,0.44H7.583c-0.242,0-0.44-0.198-0.44-0.44V6.441
	C7.143,6.199,7.341,6.002,7.583,6.002L7.583,6.002z M12.953,6.002h2.341c0.242,0,0.44,0.197,0.44,0.439v0.121
	c0,0.242-0.198,0.44-0.44,0.44h-2.341c-0.243,0-0.44-0.198-0.44-0.44V6.441C12.513,6.199,12.71,6.002,12.953,6.002L12.953,6.002z
	 M18.322,6.002h2.341c0.242,0,0.44,0.197,0.44,0.439v0.121c0,0.242-0.198,0.44-0.44,0.44h-2.341c-0.243,0-0.44-0.198-0.44-0.44
	V6.441C17.882,6.199,18.08,6.002,18.322,6.002L18.322,6.002z M23.691,6.002h2.342c0.242,0,0.44,0.197,0.44,0.439v0.121
	c0,0.242-0.198,0.44-0.44,0.44h-2.342c-0.243,0-0.44-0.198-0.44-0.44V6.441C23.251,6.199,23.448,6.002,23.691,6.002L23.691,6.002z
	 M29.061,6.002h2.341c0.243,0,0.44,0.197,0.44,0.439v0.121c0,0.242-0.197,0.44-0.44,0.44h-2.341c-0.243,0-0.44-0.198-0.44-0.44
	V6.441C28.621,6.199,28.818,6.002,29.061,6.002L29.061,6.002z M34.429,6.002h1.68c0.485,0,0.88,0.396,0.88,0.88v1.679
	c0,0.243-0.198,0.441-0.44,0.441h-0.12c-0.242,0-0.439-0.198-0.44-0.44v-1.56h-1.56c-0.242,0-0.44-0.198-0.44-0.44V6.441
	C33.989,6.199,34.187,6.002,34.429,6.002L34.429,6.002z M36.989,11.676v2.473c0,0.243-0.198,0.44-0.44,0.44h-0.12
	c-0.242,0-0.44-0.197-0.44-0.44v-2.473c0-0.242,0.198-0.44,0.44-0.44h0.12C36.791,11.235,36.989,11.434,36.989,11.676L36.989,11.676
	z M36.989,17.263v2.472c0,0.243-0.198,0.44-0.44,0.44h-0.12c-0.242,0-0.44-0.197-0.44-0.44v-2.472c0-0.243,0.198-0.439,0.44-0.439
	h0.12C36.791,16.823,36.989,17.02,36.989,17.263L36.989,17.263z M36.989,22.85v2.472c0,0.243-0.198,0.44-0.44,0.44h-0.12
	c-0.242,0-0.44-0.198-0.44-0.44V22.85c0-0.242,0.198-0.44,0.44-0.44l0.12,0C36.791,22.41,36.989,22.608,36.989,22.85L36.989,22.85z
	 M36.989,28.438v1.679c0,0.485-0.395,0.88-0.88,0.88h-1.68c-0.242,0-0.44-0.197-0.44-0.44v-0.12c0-0.242,0.198-0.44,0.44-0.44h1.56
	v-1.559c0-0.243,0.198-0.44,0.44-0.44h0.12C36.791,27.997,36.989,28.195,36.989,28.438L36.989,28.438z M31.402,30.996h-2.341
	c-0.243,0-0.44-0.197-0.44-0.44v-0.12c0-0.242,0.197-0.44,0.44-0.44h2.341c0.243,0,0.44,0.198,0.44,0.44l0,0.12
	C31.842,30.799,31.645,30.996,31.402,30.996L31.402,30.996z M26.033,30.996h-2.342c-0.243,0-0.44-0.197-0.44-0.44v-0.12
	c0-0.242,0.197-0.44,0.44-0.44h2.342c0.242,0,0.44,0.198,0.44,0.44v0.12C26.473,30.799,26.275,30.996,26.033,30.996L26.033,30.996z
	 M20.664,30.996h-2.341c-0.243,0-0.44-0.197-0.44-0.44v-0.12c0-0.242,0.197-0.44,0.44-0.44h2.341c0.242,0,0.44,0.198,0.44,0.44v0.12
	C21.104,30.799,20.906,30.996,20.664,30.996L20.664,30.996z M15.294,30.996h-2.341c-0.243,0-0.44-0.197-0.44-0.44v-0.12
	c0-0.242,0.197-0.44,0.44-0.44h2.341c0.242,0,0.44,0.198,0.44,0.44v0.12C15.734,30.799,15.537,30.996,15.294,30.996L15.294,30.996z
	 M9.925,30.996H7.583c-0.242,0-0.44-0.197-0.44-0.44v-0.12c0-0.242,0.198-0.44,0.44-0.44h2.341c0.243,0,0.44,0.198,0.44,0.44l0,0.12
	C10.365,30.799,10.167,30.996,9.925,30.996L9.925,30.996z M4.556,30.996h-1.68c-0.485,0-0.88-0.395-0.88-0.88v-1.679
	c0-0.243,0.197-0.44,0.44-0.44h0.12c0.242,0,0.44,0.198,0.44,0.44v1.559h1.56c0.242,0,0.44,0.198,0.44,0.44v0.12
	C4.996,30.799,4.798,30.996,4.556,30.996L4.556,30.996z M1.997,25.322V22.85c0-0.242,0.197-0.44,0.44-0.44h0.12
	c0.242,0,0.44,0.198,0.44,0.44v2.472c0,0.243-0.198,0.44-0.44,0.44h-0.12C2.194,25.763,1.997,25.565,1.997,25.322L1.997,25.322z
	 M1.997,19.735v-2.472c0-0.243,0.197-0.439,0.44-0.439h0.12c0.242,0,0.44,0.197,0.44,0.439v2.472c0,0.243-0.198,0.44-0.44,0.44
	h-0.12C2.194,20.175,1.997,19.978,1.997,19.735L1.997,19.735z M1.997,14.148v-2.473c0-0.242,0.197-0.44,0.44-0.44h0.12
	c0.242,0,0.44,0.198,0.44,0.44v2.473c0,0.243-0.198,0.44-0.44,0.44h-0.12C2.194,14.588,1.997,14.391,1.997,14.148L1.997,14.148z
	 M12.655,16.004c-0.364,0-0.661,0.296-0.66,0.66v3.679c0,0.363,0.296,0.66,0.66,0.66h13.677c0.363,0,0.66-0.296,0.66-0.66v-3.679
	c0-0.364-0.296-0.66-0.66-0.66H12.655z"/>
</svg>
