<?xml version="1.0" encoding="iso-8859-1"?>
<!-- Generator: Adobe Illustrator 16.0.2, SVG Export Plug-In . SVG Version: 6.00 Build 0)  -->
<!DOCTYPE svg PUBLIC "-//W3C//DTD SVG 1.1//EN" "http://www.w3.org/Graphics/SVG/1.1/DTD/svg11.dtd">
<svg version="1.1" id="co_x5F_layout_x5F_1_x5C_2" xmlns="http://www.w3.org/2000/svg" xmlns:xlink="http://www.w3.org/1999/xlink"
	 x="0px" y="0px" width="40px" height="40px" viewBox="0 0 40 40" style="enable-background:new 0 0 40 40;" xml:space="preserve">
<path style="fill-rule:evenodd;clip-rule:evenodd;" d="M7.378,2.002h25.193c2.423,0,4.399,1.977,4.399,4.4v25.194
	c0,2.423-1.977,4.399-4.399,4.399H7.378c-2.424,0-4.4-1.976-4.4-4.399V6.402C2.979,3.979,4.955,2.002,7.378,2.002L7.378,2.002z
	 M32.972,29.56V6.885c0-0.484-0.395-0.879-0.88-0.879H19.975v10.793c0,1.211-0.989,2.2-2.2,2.2L6.978,19.002V31.12
	c0,0.484,0.396,0.88,0.88,0.88h23.075l-6.778-6.779v2.747c0,0.811-0.661,1.473-1.473,1.472h-0.209c-0.812,0-1.473-0.662-1.473-1.472
	v-7.111c0-0.485,0.395-0.88,0.88-0.879h7.11c0.812,0,1.473,0.661,1.473,1.471v0.21c0,0.811-0.661,1.472-1.473,1.472h-2.447
	L32.972,29.56z"/>
</svg>
