<svg xmlns="http://www.w3.org/2000/svg" width="40" height="40"><path d="M5.305 6.002h28.393a3.305 3.305 0 013.299 3.299v18.396a3.305 3.305 0 01-3.299 3.299H5.305a3.305 3.305 0 01-3.299-3.299V9.301a3.305 3.305 0 013.299-3.299zM8.884 12a.882.882 0 00-.88.88v1.679c0 .243.197.44.44.44h.12a.44.44 0 00.44-.44V13h1.56a.44.44 0 00.44-.44v-.12a.44.44 0 00-.44-.44h-1.68zm4.559 0a.44.44 0 00-.44.44v.119c0 .243.197.44.44.44h2.119a.44.44 0 00.44-.44v-.119a.44.44 0 00-.44-.44h-2.119zm4.999 0a.441.441 0 00-.44.44v.119c0 .243.198.44.44.44h2.12a.44.44 0 00.44-.44v-.119a.441.441 0 00-.44-.44h-2.12zm4.999 0a.44.44 0 00-.44.44v.119c0 .243.197.44.44.44h2.12A.438.438 0 0026 12.56v-.12a.44.44 0 00-.439-.44h-2.12zm4.999 0a.44.44 0 00-.44.44v.119c0 .243.197.44.44.44H30v1.56c0 .243.197.44.44.44h.12a.44.44 0 00.44-.44V12.88a.882.882 0 00-.88-.88h-1.68zm2.559 5.439a.44.44 0 00-.44-.439h-.12a.44.44 0 00-.439.439v2.119c0 .243.197.44.44.44h.12a.44.44 0 00.44-.44v-2.119h-.001zm0 4.999a.44.44 0 00-.44-.44h-.12a.44.44 0 00-.44.44v1.56h-1.56a.44.44 0 00-.44.44v.12c0 .242.197.44.44.44h1.679c.485 0 .88-.396.88-.881v-1.679h.001zm-5.438 2.56a.44.44 0 00.439-.44v-.12a.44.44 0 00-.439-.44h-2.12a.44.44 0 00-.44.44v.12c0 .242.197.44.44.44h2.12zm-4.999 0c.242 0 .44-.198.44-.44v-.12a.44.44 0 00-.44-.44h-2.12a.44.44 0 00-.44.44v.12c0 .242.198.44.44.44h2.12zm-4.999 0a.44.44 0 00.44-.44v-.12a.44.44 0 00-.44-.44h-2.119a.44.44 0 00-.44.44v.12c0 .242.197.44.44.44h2.119zm-5 0a.44.44 0 00.44-.44v-.12a.44.44 0 00-.44-.44h-1.56v-1.56a.44.44 0 00-.44-.44h-.12a.44.44 0 00-.44.44v1.679c0 .485.395.881.88.881h1.68zm-2.559-5.44a.44.44 0 00.44.441h.12a.44.44 0 00.44-.44V17.44a.44.44 0 00-.44-.439h-.12a.44.44 0 00-.44.439v2.118zm-1.119-9.554a.882.882 0 00-.88.88v15.237c0 .485.395.88.88.88h25.234c.485 0 .88-.395.88-.88V10.885a.882.882 0 00-.88-.88H6.885z" fill-rule="evenodd" clip-rule="evenodd"/></svg>