<svg xmlns="http://www.w3.org/2000/svg" width="40" height="40"><path d="M7.378 2.002h25.193a4.408 4.408 0 014.399 4.4v25.194a4.408 4.408 0 01-4.399 4.399H7.378a4.408 4.408 0 01-4.4-4.399V6.402a4.41 4.41 0 014.4-4.4zM32.972 29.56V6.885a.881.881 0 00-.88-.879H19.975v10.793c0 1.211-.989 2.2-2.2 2.2l-10.797.003V31.12c0 .484.396.88.88.88h23.075l-6.778-6.779v2.747c0 .811-.661 1.473-1.473 1.472h-.209A1.475 1.475 0 0121 27.968v-7.111a.88.88 0 01.88-.879h7.11c.812 0 1.473.661 1.473 1.471v.21c0 .811-.661 1.472-1.473 1.472h-2.447l6.429 6.429z" fill-rule="evenodd" clip-rule="evenodd"/></svg>