<?xml version="1.0" encoding="iso-8859-1"?>
<!-- Generator: Adobe Illustrator 16.0.2, SVG Export Plug-In . SVG Version: 6.00 Build 0)  -->
<!DOCTYPE svg PUBLIC "-//W3C//DTD SVG 1.1//EN" "http://www.w3.org/Graphics/SVG/1.1/DTD/svg11.dtd">
<svg version="1.1" id="co_x5F_player" xmlns="http://www.w3.org/2000/svg" xmlns:xlink="http://www.w3.org/1999/xlink" x="0px"
	 y="0px" width="40px" height="40px" viewBox="0 0 40 40" style="enable-background:new 0 0 40 40;" xml:space="preserve">
<path style="fill-rule:evenodd;clip-rule:evenodd;" d="M23.844,34.004c-1.031,0-1.871-0.841-1.871-1.871v-0.267
	c0-1.031,0.842-1.872,1.871-1.872h3.262l-5.549-5.548c-0.785-0.786-0.785-2.061,0-2.846c0.787-0.786,2.061-0.786,2.846,0l5.59,5.589
	v-3.342c0-1.031,0.84-1.871,1.871-1.871h0.268c1.031,0,1.871,0.84,1.871,1.871v10.157H23.844z M32.131,16.024h-0.268
	c-1.031,0-1.871-0.84-1.871-1.871v-3.342l-5.59,5.589c-0.785,0.785-2.059,0.785-2.846,0c-0.785-0.786-0.785-2.061,0-2.846
	l5.549-5.549l-3.262,0c-1.029,0-1.871-0.841-1.871-1.872V5.867c0-1.03,0.84-1.872,1.871-1.872h10.158v10.158
	C34.002,15.184,33.162,16.024,32.131,16.024z M10.895,29.994h3.262c1.031,0,1.871,0.841,1.871,1.872v0.267
	c0,1.03-0.84,1.871-1.871,1.871H4V23.847c0-1.031,0.84-1.871,1.871-1.871h0.266c1.031,0,1.871,0.84,1.871,1.871v3.342l5.59-5.589
	c0.787-0.786,2.061-0.786,2.846,0c0.787,0.786,0.787,2.06,0,2.846L10.895,29.994z M13.598,16.4l-5.59-5.589v3.342
	c0,1.03-0.84,1.871-1.871,1.871H5.871C4.84,16.024,4,15.184,4,14.154V3.996h10.156c1.031,0,1.871,0.841,1.871,1.872v0.267
	c0,1.031-0.84,1.872-1.871,1.872l-3.262,0l5.549,5.549c0.787,0.786,0.787,2.06,0,2.846C15.658,17.186,14.385,17.186,13.598,16.4z"/>
</svg>
