<svg xmlns="http://www.w3.org/2000/svg" width="40" height="40"><path d="M23.844 34.004a1.875 1.875 0 01-1.871-1.871v-.267c0-1.031.842-1.872 1.871-1.872h3.262l-5.549-5.548a2.012 2.012 0 112.846-2.846l5.59 5.589v-3.342c0-1.031.84-1.871 1.871-1.871h.268c1.031 0 1.871.84 1.871 1.871v10.157H23.844zm8.287-17.98h-.268a1.874 1.874 0 01-1.871-1.871v-3.342l-5.59 5.589a2.014 2.014 0 01-2.846 0 2.014 2.014 0 010-2.846l5.549-5.549h-3.262a1.876 1.876 0 01-1.871-1.872v-.266c0-1.03.84-1.872 1.871-1.872h10.158v10.158a1.872 1.872 0 01-1.87 1.871zm-21.236 13.97h3.262c1.031 0 1.871.841 1.871 1.872v.267c0 1.03-.84 1.871-1.871 1.871H4V23.847c0-1.031.84-1.871 1.871-1.871h.266c1.031 0 1.871.84 1.871 1.871v3.342l5.59-5.589a2.012 2.012 0 112.846 2.846l-5.549 5.548zM13.598 16.4l-5.59-5.589v3.342c0 1.03-.84 1.871-1.871 1.871h-.266A1.874 1.874 0 014 14.154V3.996h10.156c1.031 0 1.871.841 1.871 1.872v.267c0 1.031-.84 1.872-1.871 1.872h-3.262l5.549 5.549a2.01 2.01 0 11-2.845 2.844z" fill-rule="evenodd" clip-rule="evenodd"/></svg>