<?xml version="1.0" encoding="iso-8859-1"?>
<!-- Generator: Adobe Illustrator 16.0.2, SVG Export Plug-In . SVG Version: 6.00 Build 0)  -->
<!DOCTYPE svg PUBLIC "-//W3C//DTD SVG 1.1//EN" "http://www.w3.org/Graphics/SVG/1.1/DTD/svg11.dtd">
<svg version="1.1" id="co_x5F_player" xmlns="http://www.w3.org/2000/svg" xmlns:xlink="http://www.w3.org/1999/xlink" x="0px"
	 y="0px" width="40px" height="40px" viewBox="0 0 40 40" style="enable-background:new 0 0 40 40;" xml:space="preserve">
<path style="fill-rule:evenodd;clip-rule:evenodd;" d="M29.274,23.023c0,4.35-3.528,7.877-7.878,7.877
	c-3.762,0-6.762-2.645-7.623-5.969c-0.357-1.377-1.559-2.307-2.981-2.307h-0.002c-0.983,0-1.83,0.414-2.433,1.191
	c-0.603,0.776-0.794,1.699-0.55,2.652c1.547,6.04,7.056,10.577,13.59,10.577c7.743,0,14.022-6.28,14.022-14.023
	c0-7.542-5.957-13.695-13.42-14.011L22,5.582c0-0.523-0.284-0.972-0.757-1.194c-0.474-0.224-1-0.157-1.404,0.177l-8.097,6.703
	c-0.313,0.26-0.479,0.609-0.479,1.017s0.166,0.757,0.479,1.017l8.098,6.703c0.403,0.333,0.93,0.399,1.403,0.177
	c0.474-0.224,0.758-0.671,0.758-1.195L22,15.284C26.064,15.284,29.274,19.044,29.274,23.023z"/>
</svg>
