<?xml version="1.0" encoding="iso-8859-1"?>
<!-- Generator: Adobe Illustrator 16.0.2, SVG Export Plug-In . SVG Version: 6.00 Build 0)  -->
<!DOCTYPE svg PUBLIC "-//W3C//DTD SVG 1.1//EN" "http://www.w3.org/Graphics/SVG/1.1/DTD/svg11.dtd">
<svg version="1.1" id="co_x5F_layout_x5F_1_x5C_2" xmlns="http://www.w3.org/2000/svg" xmlns:xlink="http://www.w3.org/1999/xlink"
	 x="0px" y="0px" width="40px" height="40px" viewBox="0 0 40 40" style="enable-background:new 0 0 40 40;" xml:space="preserve">
<path style="fill-rule:evenodd;clip-rule:evenodd;" d="M7.428,2.002h25.193c2.423,0,4.399,1.977,4.399,4.4v25.194
	c0,2.423-1.977,4.399-4.399,4.399H7.428c-2.424,0-4.4-1.976-4.4-4.399V6.402C3.027,3.979,5.004,2.002,7.428,2.002L7.428,2.002z
	 M20.027,6.006v10.998l6.845,6.753V21.01c0-0.811,0.66-1.474,1.472-1.473h0.21c0.812,0,1.472,0.662,1.472,1.473v7.111
	c0,0.484-0.396,0.88-0.879,0.88l-7.111,0c-0.811,0-1.473-0.661-1.473-1.472v-0.21c0.001-0.811,0.662-1.471,1.473-1.472l2.463,0.001
	l-6.8-6.845H7.031V31.12c0,0.484,0.396,0.88,0.88,0.88h24.234c0.484,0,0.88-0.396,0.88-0.88V6.885c0-0.484-0.396-0.879-0.88-0.879
	H20.027z"/>
</svg>
