<?xml version="1.0" encoding="iso-8859-1"?>
<!-- Generator: Adobe Illustrator 16.0.2, SVG Export Plug-In . SVG Version: 6.00 Build 0)  -->
<!DOCTYPE svg PUBLIC "-//W3C//DTD SVG 1.1//EN" "http://www.w3.org/Graphics/SVG/1.1/DTD/svg11.dtd">
<svg version="1.1" id="co_x5F_player" xmlns="http://www.w3.org/2000/svg" xmlns:xlink="http://www.w3.org/1999/xlink" x="0px"
	 y="0px" width="40px" height="40px" viewBox="0 0 40 40" style="enable-background:new 0 0 40 40;" xml:space="preserve">
<path style="fill-rule:evenodd;clip-rule:evenodd;fill:#ffffff;" d="M31.508,27.079c-0.736,0.72-1.935,0.72-2.671,0l-0.19-0.187
	c-0.734-0.719-0.734-1.893,0-2.613l2.356-2.305h-5.993c-1.123,0-2.031-0.891-2.031-1.988c0-1.097,0.909-1.987,2.031-1.987h5.993
	l-2.356-2.306c-0.734-0.72-0.735-1.894,0-2.613l0.19-0.188c0.736-0.719,1.936-0.719,2.671,0l7.248,7.094L31.508,27.079z
	 M26.904,11.369c-0.72,0.735-1.894,0.734-2.614,0l-2.306-2.355v5.992c0,1.122-0.89,2.032-1.987,2.032s-1.988-0.91-1.988-2.032V9.014
	l-2.305,2.355c-0.72,0.734-1.894,0.734-2.613,0l-0.187-0.19c-0.72-0.736-0.72-1.935,0-2.671l7.093-7.249l7.093,7.249
	c0.719,0.736,0.719,1.935,0,2.671L26.904,11.369z M8.998,17.999h5.993c1.123,0,2.031,0.891,2.031,1.987
	c0,1.098-0.909,1.988-2.031,1.988H8.998l2.356,2.305c0.734,0.721,0.734,1.894,0,2.613l-0.19,0.187c-0.736,0.72-1.936,0.72-2.671,0
	l-7.248-7.093l7.248-7.094c0.736-0.719,1.935-0.719,2.671,0l0.19,0.188c0.735,0.72,0.734,1.894,0,2.613L8.998,17.999z
	 M13.091,28.662c0.72-0.735,1.894-0.735,2.613,0l2.305,2.356v-5.993c0-1.122,0.89-2.031,1.988-2.031s1.987,0.909,1.987,2.031v5.993
	l2.306-2.356c0.72-0.735,1.894-0.736,2.614,0l0.187,0.19c0.719,0.736,0.719,1.935,0,2.671l-7.093,7.248l-7.093-7.248
	c-0.72-0.736-0.72-1.936,0-2.671L13.091,28.662z"/>
</svg>
