<?xml version="1.0" encoding="iso-8859-1"?>
<!-- Generator: Adobe Illustrator 16.0.2, SVG Export Plug-In . SVG Version: 6.00 Build 0)  -->
<!DOCTYPE svg PUBLIC "-//W3C//DTD SVG 1.1//EN" "http://www.w3.org/Graphics/SVG/1.1/DTD/svg11.dtd">
<svg version="1.1" id="co_x5F_layout_x5F_1_x5C_2" xmlns="http://www.w3.org/2000/svg" xmlns:xlink="http://www.w3.org/1999/xlink"
	 x="0px" y="0px" width="40px" height="40px" viewBox="0 0 40 40" style="enable-background:new 0 0 40 40;" xml:space="preserve">
<path style="fill-rule:evenodd;clip-rule:evenodd;" d="M5.305,6.002h28.393c1.817,0,3.299,1.482,3.299,3.299v18.396
	c0,1.817-1.482,3.299-3.299,3.299H5.305c-1.817,0-3.299-1.482-3.299-3.299V9.301C2.006,7.484,3.488,6.002,5.305,6.002L5.305,6.002z
	 M8.884,12c-0.485,0-0.88,0.396-0.88,0.88v1.679c0,0.243,0.197,0.44,0.44,0.44h0.12c0.243,0,0.44-0.198,0.44-0.44V13h1.56
	c0.243,0,0.44-0.197,0.44-0.44V12.44c0-0.242-0.197-0.44-0.44-0.44H8.884L8.884,12z M13.443,12c-0.243,0-0.44,0.198-0.44,0.44v0.119
	c0,0.243,0.197,0.44,0.44,0.44h2.119c0.243,0,0.44-0.197,0.44-0.44V12.44c0-0.242-0.197-0.44-0.44-0.44H13.443L13.443,12z
	 M18.442,12c-0.242,0-0.44,0.198-0.44,0.44v0.119c0,0.243,0.198,0.44,0.44,0.44h2.12c0.242,0,0.44-0.197,0.44-0.44V12.44
	c0-0.242-0.198-0.44-0.44-0.44H18.442L18.442,12z M23.441,12c-0.243,0-0.44,0.198-0.44,0.44v0.119c0,0.243,0.197,0.44,0.44,0.44
	h2.12C25.803,13,26,12.803,26,12.56V12.44c0-0.242-0.197-0.44-0.439-0.44H23.441L23.441,12z M28.44,12C28.197,12,28,12.198,28,12.44
	v0.119c0,0.243,0.197,0.44,0.44,0.44H30v1.56c0,0.243,0.197,0.44,0.44,0.44h0.12c0.243,0,0.44-0.198,0.44-0.44V12.88
	c0-0.484-0.395-0.88-0.88-0.88H28.44L28.44,12z M30.999,17.439c0-0.242-0.197-0.439-0.44-0.439h-0.12C30.197,17,30,17.197,30,17.439
	v2.119c0,0.243,0.197,0.44,0.44,0.44h0.12c0.243,0,0.44-0.197,0.44-0.44V17.439L30.999,17.439z M30.999,22.438
	c0-0.242-0.197-0.44-0.44-0.44h-0.12c-0.243,0-0.44,0.198-0.44,0.44v1.56h-1.56c-0.243,0-0.44,0.197-0.44,0.44v0.12
	c0,0.242,0.197,0.44,0.44,0.44h1.679c0.485,0,0.88-0.396,0.88-0.881V22.438L30.999,22.438z M25.561,24.998
	c0.242,0,0.439-0.198,0.439-0.44v-0.12c0-0.243-0.197-0.44-0.439-0.44h-2.12c-0.243,0-0.44,0.197-0.44,0.44v0.12
	c0,0.242,0.197,0.44,0.44,0.44H25.561L25.561,24.998z M20.562,24.998c0.242,0,0.44-0.198,0.44-0.44v-0.12
	c0-0.243-0.198-0.44-0.44-0.44h-2.12c-0.242,0-0.44,0.197-0.44,0.44v0.12c0,0.242,0.198,0.44,0.44,0.44H20.562L20.562,24.998z
	 M15.563,24.998c0.243,0,0.44-0.198,0.44-0.44v-0.12c0-0.243-0.197-0.44-0.44-0.44h-2.119c-0.243,0-0.44,0.197-0.44,0.44v0.12
	c0,0.242,0.197,0.44,0.44,0.44H15.563L15.563,24.998z M10.563,24.998c0.243,0,0.44-0.198,0.44-0.44v-0.12
	c0-0.243-0.197-0.44-0.44-0.44h-1.56v-1.56c0-0.242-0.197-0.44-0.44-0.44h-0.12c-0.243,0-0.44,0.198-0.44,0.44v1.679
	c0,0.485,0.395,0.881,0.88,0.881H10.563L10.563,24.998z M8.004,19.558c0,0.243,0.197,0.441,0.44,0.441l0.12,0
	c0.243,0,0.44-0.197,0.44-0.44v-2.119c0-0.242-0.197-0.439-0.44-0.439h-0.12c-0.243,0-0.44,0.197-0.44,0.439V19.558L8.004,19.558z
	 M6.885,10.004c-0.485,0-0.88,0.396-0.88,0.88v15.237c0,0.485,0.395,0.88,0.88,0.88h25.234c0.485,0,0.88-0.395,0.88-0.88V10.885
	c0-0.484-0.395-0.88-0.88-0.88H6.885z"/>
</svg>
